<mxfile host="app.diagrams.net" agent="Mozilla/5.0 (Macintosh; Intel Mac OS X 10_15_7) AppleWebKit/605.1.15 (KHTML, like Gecko) Version/16.6 Safari/605.1.15" version="26.0.6">
  <diagram name="Page-1" id="yGhR8c1wSvMrbHXnnr8h">
    <mxGraphModel dx="995" dy="664" grid="1" gridSize="10" guides="1" tooltips="1" connect="1" arrows="1" fold="1" page="1" pageScale="1" pageWidth="850" pageHeight="1100" math="0" shadow="0">
      <root>
        <mxCell id="0" />
        <mxCell id="1" parent="0" />
        <mxCell id="xupk7ajsttSQUO8x850F-2" value="Region" style="points=[[0,0],[0.25,0],[0.5,0],[0.75,0],[1,0],[1,0.25],[1,0.5],[1,0.75],[1,1],[0.75,1],[0.5,1],[0.25,1],[0,1],[0,0.75],[0,0.5],[0,0.25]];outlineConnect=0;gradientColor=none;html=1;whiteSpace=wrap;fontSize=12;fontStyle=0;container=1;pointerEvents=0;collapsible=0;recursiveResize=0;shape=mxgraph.aws4.group;grIcon=mxgraph.aws4.group_region;strokeColor=#00A4A6;fillColor=none;verticalAlign=top;align=left;spacingLeft=30;fontColor=#147EBA;dashed=1;" vertex="1" parent="1">
          <mxGeometry x="40" y="80" width="760" height="560" as="geometry" />
        </mxCell>
        <mxCell id="xupk7ajsttSQUO8x850F-3" value="Availability zone A" style="sketch=0;outlineConnect=0;gradientColor=none;html=1;whiteSpace=wrap;fontSize=12;fontStyle=0;shape=mxgraph.aws4.group;grIcon=mxgraph.aws4.group_availability_zone;strokeColor=#545B64;fillColor=none;verticalAlign=top;align=left;spacingLeft=30;fontColor=#545B64;dashed=1;" vertex="1" parent="xupk7ajsttSQUO8x850F-2">
          <mxGeometry x="40" y="240" width="200" height="240" as="geometry" />
        </mxCell>
        <mxCell id="xupk7ajsttSQUO8x850F-4" value="Availability zone B" style="sketch=0;outlineConnect=0;gradientColor=none;html=1;whiteSpace=wrap;fontSize=12;fontStyle=0;shape=mxgraph.aws4.group;grIcon=mxgraph.aws4.group_availability_zone;strokeColor=#545B64;fillColor=none;verticalAlign=top;align=left;spacingLeft=30;fontColor=#545B64;dashed=1;" vertex="1" parent="xupk7ajsttSQUO8x850F-2">
          <mxGeometry x="280" y="240" width="200" height="240" as="geometry" />
        </mxCell>
        <mxCell id="xupk7ajsttSQUO8x850F-5" value="Availability zone C" style="sketch=0;outlineConnect=0;gradientColor=none;html=1;whiteSpace=wrap;fontSize=12;fontStyle=0;shape=mxgraph.aws4.group;grIcon=mxgraph.aws4.group_availability_zone;strokeColor=#545B64;fillColor=none;verticalAlign=top;align=left;spacingLeft=30;fontColor=#545B64;dashed=1;" vertex="1" parent="xupk7ajsttSQUO8x850F-2">
          <mxGeometry x="520" y="240" width="200" height="240" as="geometry" />
        </mxCell>
        <mxCell id="xupk7ajsttSQUO8x850F-6" value="" style="sketch=0;outlineConnect=0;fontColor=#232F3E;gradientColor=none;fillColor=#C925D1;strokeColor=none;dashed=0;verticalLabelPosition=bottom;verticalAlign=top;align=center;html=1;fontSize=12;fontStyle=0;aspect=fixed;pointerEvents=1;shape=mxgraph.aws4.rds_instance;" vertex="1" parent="xupk7ajsttSQUO8x850F-2">
          <mxGeometry x="101" y="360" width="78" height="78" as="geometry" />
        </mxCell>
        <mxCell id="xupk7ajsttSQUO8x850F-11" style="edgeStyle=orthogonalEdgeStyle;rounded=0;orthogonalLoop=1;jettySize=auto;html=1;" edge="1" parent="xupk7ajsttSQUO8x850F-2" source="xupk7ajsttSQUO8x850F-7" target="xupk7ajsttSQUO8x850F-6">
          <mxGeometry relative="1" as="geometry" />
        </mxCell>
        <mxCell id="xupk7ajsttSQUO8x850F-12" style="edgeStyle=orthogonalEdgeStyle;rounded=0;orthogonalLoop=1;jettySize=auto;html=1;" edge="1" parent="xupk7ajsttSQUO8x850F-2" source="xupk7ajsttSQUO8x850F-7" target="xupk7ajsttSQUO8x850F-8">
          <mxGeometry relative="1" as="geometry" />
        </mxCell>
        <mxCell id="xupk7ajsttSQUO8x850F-7" value="" style="sketch=0;outlineConnect=0;fontColor=#232F3E;gradientColor=none;fillColor=#C925D1;strokeColor=none;dashed=0;verticalLabelPosition=bottom;verticalAlign=top;align=center;html=1;fontSize=12;fontStyle=0;aspect=fixed;pointerEvents=1;shape=mxgraph.aws4.rds_instance;" vertex="1" parent="xupk7ajsttSQUO8x850F-2">
          <mxGeometry x="341" y="360" width="78" height="78" as="geometry" />
        </mxCell>
        <mxCell id="xupk7ajsttSQUO8x850F-8" value="" style="sketch=0;outlineConnect=0;fontColor=#232F3E;gradientColor=none;fillColor=#C925D1;strokeColor=none;dashed=0;verticalLabelPosition=bottom;verticalAlign=top;align=center;html=1;fontSize=12;fontStyle=0;aspect=fixed;pointerEvents=1;shape=mxgraph.aws4.rds_instance;" vertex="1" parent="xupk7ajsttSQUO8x850F-2">
          <mxGeometry x="581" y="360" width="78" height="78" as="geometry" />
        </mxCell>
        <mxCell id="xupk7ajsttSQUO8x850F-18" value="" style="endArrow=classic;html=1;rounded=0;" edge="1" parent="xupk7ajsttSQUO8x850F-2">
          <mxGeometry width="50" height="50" relative="1" as="geometry">
            <mxPoint x="120" y="100" as="sourcePoint" />
            <mxPoint x="120" y="350" as="targetPoint" />
          </mxGeometry>
        </mxCell>
        <mxCell id="xupk7ajsttSQUO8x850F-19" value="" style="endArrow=classic;html=1;rounded=0;" edge="1" parent="xupk7ajsttSQUO8x850F-2">
          <mxGeometry width="50" height="50" relative="1" as="geometry">
            <mxPoint x="400" y="100" as="sourcePoint" />
            <mxPoint x="400" y="350" as="targetPoint" />
          </mxGeometry>
        </mxCell>
        <mxCell id="xupk7ajsttSQUO8x850F-22" value="" style="endArrow=none;dashed=1;html=1;dashPattern=1 3;strokeWidth=2;rounded=0;" edge="1" parent="xupk7ajsttSQUO8x850F-2" target="xupk7ajsttSQUO8x850F-8">
          <mxGeometry width="50" height="50" relative="1" as="geometry">
            <mxPoint x="400" y="98" as="sourcePoint" />
            <mxPoint x="497" as="targetPoint" />
            <Array as="points">
              <mxPoint x="620" y="100" />
            </Array>
          </mxGeometry>
        </mxCell>
        <mxCell id="xupk7ajsttSQUO8x850F-23" value="" style="endArrow=classic;html=1;rounded=0;" edge="1" parent="xupk7ajsttSQUO8x850F-2">
          <mxGeometry width="50" height="50" relative="1" as="geometry">
            <mxPoint x="620" y="350" as="sourcePoint" />
            <mxPoint x="619.58" y="360" as="targetPoint" />
          </mxGeometry>
        </mxCell>
        <mxCell id="xupk7ajsttSQUO8x850F-24" value="" style="endArrow=none;html=1;rounded=0;" edge="1" parent="xupk7ajsttSQUO8x850F-2">
          <mxGeometry width="50" height="50" relative="1" as="geometry">
            <mxPoint x="120" y="100" as="sourcePoint" />
            <mxPoint x="400" y="270" as="targetPoint" />
            <Array as="points">
              <mxPoint x="400" y="100" />
            </Array>
          </mxGeometry>
        </mxCell>
        <mxCell id="xupk7ajsttSQUO8x850F-25" value="" style="verticalLabelPosition=bottom;html=1;verticalAlign=top;align=center;strokeColor=none;fillColor=#00BEF2;shape=mxgraph.azure.computer;pointerEvents=1;" vertex="1" parent="xupk7ajsttSQUO8x850F-2">
          <mxGeometry x="230" y="60" width="50" height="45" as="geometry" />
        </mxCell>
        <mxCell id="xupk7ajsttSQUO8x850F-26" value="Application Layer" style="text;html=1;align=center;verticalAlign=middle;resizable=0;points=[];autosize=1;strokeColor=none;fillColor=none;" vertex="1" parent="xupk7ajsttSQUO8x850F-2">
          <mxGeometry x="195" y="105" width="120" height="30" as="geometry" />
        </mxCell>
      </root>
    </mxGraphModel>
  </diagram>
</mxfile>
